<svg id="Layer_1" data-name="Layer 1" xmlns="http://www.w3.org/2000/svg" viewBox="0 0 618.2 192.3"><title>wpsu-penn-state</title><path id="SVGID" d="M30.3,39.3h35l23.6,95.4h.6l26.3-95.4h30.6l26.3,95.4h.6l23.6-95.4h35L191.3,179.7H158L131.4,85.6h-.6l-26.6,94.1H70.9Z" transform="translate(-30.3 -35)" fill="#009bde"/><path id="SVGID-2" data-name="SVGID" d="M492.5,83.7c-4.2-9.2-15.3-20-35.3-20-15.8-.3-25.8,5.3-25.8,13.6,0,24.4,88.5,3.6,88.5,56.6,0,33.9-30.2,49.1-62.4,49.1s-55.5-11.3-68-25.5L415,137.8c7.8,11.4,22.5,17.5,40.5,17.5,16.1,0,27.2-8.9,27.2-16.4,0-23.9-86.8-4.2-86.8-57.5,0-31.6,27.4-45.5,62.1-45.5s51.4,17.2,58.1,25.6Z" transform="translate(-30.3 -35)" fill="#002d87"/><path id="SVGID-3" data-name="SVGID" d="M614.6,38.3v83.3c0,19.2-7.6,29.2-24.5,29.4s-24.6-10.2-24.6-29.4V38.3H531.7v93c0,40.8,27.5,50.8,51.3,50.8h14.1c23.9,0,51.4-10,51.4-50.8v-93Z" transform="translate(-30.3 -35)" fill="#002d87"/><path d="M311.4,196.1h12.1c7.1,0,10.6,4.4,10.6,10.3s-4.2,9.9-10.2,9.9h-6.8v10.2h-5.7Zm5.7,15.4h5.7c3.6,0,5.4-2.2,5.4-5.1s-2.3-5.5-5.6-5.5h-5.5Z" transform="translate(-30.3 -35)" fill="#002d87"/><path d="M346,196.1h21.6v5.3H351.8v6.9h14.5v5.1H351.8v7.8h16.9v5.3H346Z" transform="translate(-30.3 -35)" fill="#002d87"/><path d="M380.9,196.1h5.2l12.8,21.7h.1V196.1h5.2v30.4h-5.3l-12.7-21.6h-.1v21.6h-5.2Z" transform="translate(-30.3 -35)" fill="#002d87"/><path d="M418.7,196.1h5.2l12.8,21.7h.1V196.1H442v30.4h-5.3L424,204.9h-.1v21.6h-5.2Z" transform="translate(-30.3 -35)" fill="#002d87"/><path d="M478.8,217.4A10.8,10.8,0,0,0,488,222c2.7,0,6.4-1,6.4-3.9s-2.2-3.1-6.3-4l-3.3-.8c-4.9-1.1-9.2-2.9-9.2-8.5s6.1-9.5,11.8-9.5a15.4,15.4,0,0,1,12.7,6.1l-4.7,3.6a8.7,8.7,0,0,0-8-4.4c-3.3,0-5.8,1.3-5.8,3.4s2.9,3.1,6.3,3.9l3.7.8c4.5,1,8.8,2.8,8.8,8.6,0,7.4-7,10-13.3,10s-10.3-2.2-13.2-6.4Z" transform="translate(-30.3 -35)" fill="#002d87"/><path d="M518.7,201.4h-8.3v-5.3h22.4v5.3h-8.3v25.1h-5.8Z" transform="translate(-30.3 -35)" fill="#002d87"/><path d="M549.4,196.1h6.7l10.1,30.4h-6l-1.7-5.9H547l-1.8,5.9h-6Zm3.4,5.6h-.1l-4.2,13.9h8.4Z" transform="translate(-30.3 -35)" fill="#002d87"/><path d="M581,201.4h-8.3v-5.3H595v5.3h-8.3v25.1H581Z" transform="translate(-30.3 -35)" fill="#002d87"/><path d="M606.6,196.1h21.6v5.3H612.4v6.9h14.5v5.1H612.4v7.8h16.9v5.3H606.6Z" transform="translate(-30.3 -35)" fill="#002d87"/><polygon points="269.6 97.8 269.6 48.4 311.7 72.5 269.6 97.8" fill="#009bde"/><path d="M318,35c-18.6,0-33.9,6.9-44.9,20.3V39.4H242.9V227h32.9V163.6c14,13.1,24.4,17.3,42.2,17.3,38.2,0,68.6-32.4,68.6-73.5S356.7,35,318,35Zm-3.4,112.8a40.4,40.4,0,1,1,40.3-40.4A40.4,40.4,0,0,1,314.6,147.8Z" transform="translate(-30.3 -35)" fill="#002d87"/></svg>